HIERARCHY
ROOT root
{
	OFFSET	0	13.1	24.9
	CHANNELS 6  Xposition Yposition Zposition Xrotation Yrotation Zrotation
	JOINT spine_1
	{
		OFFSET	0	9.99999	0
		CHANNELS 3  Xrotation Yrotation Zrotation
		JOINT spine_2
		{
			OFFSET	0	112	-10
			CHANNELS 3  Xrotation Yrotation Zrotation
			JOINT spine_3
			{
				OFFSET	0	206.5	19.3
				CHANNELS 3  Xrotation Yrotation Zrotation
				JOINT spine_4
				{
					OFFSET	0	110.4	14.6
					CHANNELS 3  Xrotation Yrotation Zrotation
					JOINT neck_1
					{
						OFFSET	0	71.8	-50.3
						CHANNELS 3  Xrotation Yrotation Zrotation
						JOINT neck_2
						{
							OFFSET	0	86.2	-25.8
							CHANNELS 3  Xrotation Yrotation Zrotation
							JOINT head_ee
							{
								OFFSET	0	179.8	-8.7
								CHANNELS 3  Xrotation Yrotation Zrotation
								End Site
								{
									OFFSET	1	0	0
								}
							}
						}
					}
					JOINT left_clavicle
					{
						OFFSET	-43.2	22.4	-70.8
						CHANNELS 3  Xrotation Yrotation Zrotation
						JOINT left_shoulder
						{
							OFFSET	-93.9	-5.79999	48.7
							CHANNELS 3  Xrotation Yrotation Zrotation
							JOINT left_elbow
							{
								OFFSET	-291.4	-30.8	15.2
								CHANNELS 3  Xrotation Yrotation Zrotation
								JOINT left_lowarm_twist
								{
									OFFSET	-110.7	-3.89999	13.6
									CHANNELS 3  Xrotation Yrotation Zrotation
									JOINT left_hand
									{
										OFFSET	-110.7	-3.89999	13.6
										CHANNELS 3  Xrotation Yrotation Zrotation
										JOINT left_ee
										{
											OFFSET	-80.8	-5.10001	12.1
											CHANNELS 3  Xrotation Yrotation Zrotation
											End Site
											{
												OFFSET	1	0	0
											}
										}
									}
								}
							}
						}
					}
					JOINT right_clavicle
					{
						OFFSET	43.2	22.4	-70.8
						CHANNELS 3  Xrotation Yrotation Zrotation
						JOINT right_shoulder
						{
							OFFSET	93.9	-5.79999	48.7
							CHANNELS 3  Xrotation Yrotation Zrotation
							JOINT right_elbow
							{
								OFFSET	291.4	-30.8	15.2
								CHANNELS 3  Xrotation Yrotation Zrotation
								JOINT right_lowarm_twist
								{
									OFFSET	110.7	-3.89999	13.6
									CHANNELS 3  Xrotation Yrotation Zrotation
									JOINT right_hand
									{
										OFFSET	110.7	-3.89999	13.6
										CHANNELS 3  Xrotation Yrotation Zrotation
										JOINT right_ee
										{
											OFFSET	80.8	-5.10001	12.1
											CHANNELS 3  Xrotation Yrotation Zrotation
											End Site
											{
												OFFSET	1	0	0
											}
										}
									}
								}
							}
						}
					}
				}
			}
		}
	}
	JOINT left_hip
	{
		OFFSET	-82.8	-127.5	0.300001
		CHANNELS 3  Xrotation Yrotation Zrotation
		JOINT left_knee
		{
			OFFSET	-28.2	-396.7	2.2
			CHANNELS 3  Xrotation Yrotation Zrotation
			JOINT left_ankle
			{
				OFFSET	-11.7	-411.3	35.4
				CHANNELS 3  Xrotation Yrotation Zrotation
				JOINT left_toes
				{
					OFFSET	0	-60	-88.6
					CHANNELS 3  Xrotation Yrotation Zrotation
					JOINT left_foot_ee
					{
						OFFSET	-22.5	-16.5	-42.2
						CHANNELS 3  Xrotation Yrotation Zrotation
						End Site
						{
							OFFSET	1	0	0
						}
					}
				}
			}
		}
	}
	JOINT right_hip
	{
		OFFSET	82.8	-127.5	0.300001
		CHANNELS 3  Xrotation Yrotation Zrotation
		JOINT right_knee
		{
			OFFSET	28.2	-396.7	2.2
			CHANNELS 3  Xrotation Yrotation Zrotation
			JOINT right_ankle
			{
				OFFSET	11.7	-411.3	35.4
				CHANNELS 3  Xrotation Yrotation Zrotation
				JOINT right_toes
				{
					OFFSET	0	-60	-88.6
					CHANNELS 3  Xrotation Yrotation Zrotation
					JOINT right_foot_ee
					{
						OFFSET	22.5	-16.5	-42.2
						CHANNELS 3  Xrotation Yrotation Zrotation
						End Site
						{
							OFFSET	1	0	0
						}
					}
				}
			}
		}
	}
}
MOTION
Frames: 9
Frame Time: 0.02
3468.88215689 718.996 -1539.33527046 -8.31241933595 51.4211975505 6.33654716146 3.45012 0.451928 -0.557226 3.45016 0.486469 -0.52734 3.44564 0.560553 -0.447795 3.44568 0.482798 -0.530704 -28.6693 13.7165 9.8771 -29.7293 22.8015 17.2947 -0.0 0.0 -0.0 1.7142 24.2177 5.10635 -27.7284 -7.76974 62.1578 2.27549 -48.4156 1.02313 -66.16 -6.05725 5.2513 -2.00439 -1.3969 -14.1659 -0.0 0.0 -0.0 13.7118 20.7015 -27.8601 -9.84938 -1.87683 -63.2749 0.229615 6.48934 -0.013017 84.9774 4.42382 8.86509 0.603389 -29.3109 -14.7812 0.0 0.0 0.0 20.0161 33.8936 -18.6711 -31.9097 -0.0338063 4.83415 35.1122 -6.91684 -4.51515 15.1438 -0.0 -0.0 -0.0 0.0 -0.0 7.5125 11.5062 -0.203687 -24.0667 -0.22524 -3.65928 38.2089 20.316 5.20203 -10.7284 0.0 0.0 0.0 0.0 0.0 
3470.84859762 718.996 -1542.44293753 -8.01818097892 49.7355808488 5.95569495382 3.45012 0.451928 -0.557226 3.45016 0.486469 -0.52734 3.44564 0.560553 -0.447795 3.44568 0.482798 -0.530704 -28.6693 13.7165 9.8771 -29.7293 22.8015 17.2947 -0.0 0.0 -0.0 1.7142 24.2177 5.10635 -27.7284 -7.76974 62.1578 2.27549 -48.4156 1.02313 -66.16 -6.05725 5.2513 -2.00439 -1.3969 -14.1659 -0.0 0.0 -0.0 13.7118 20.7015 -27.8601 -9.84938 -1.87683 -63.2749 0.229615 6.48934 -0.013017 84.9774 4.42382 8.86509 0.603389 -29.3109 -14.7812 0.0 0.0 0.0 20.0161 33.8936 -18.6711 -31.9097 -0.0338063 4.83415 35.1122 -6.91684 -4.51515 15.1438 -0.0 -0.0 -0.0 0.0 -0.0 7.5125 11.5062 -0.203687 -24.0667 -0.22524 -3.65928 38.2089 20.316 5.20203 -10.7284 0.0 0.0 0.0 0.0 0.0 
3439.77490818 717.651 -1535.59920608 -9.68006671913 60.3806341743 7.85384713505 3.6011 0.649112 -0.420261 3.60095 0.674539 -0.378104 3.59655 0.723197 -0.273766 3.59707 0.670885 -0.38455 -28.7599 14.4393 8.80334 -30.125 24.5579 16.839 -0.0 0.0 -0.0 1.62716 24.484 5.00483 -31.2476 -4.70003 63.7859 2.0437 -45.3475 0.853874 -66.0494 -6.04322 5.24934 -1.9488 -1.34626 -13.7583 -0.0 0.0 -0.0 14.7517 25.129 -29.8823 -6.13322 -0.308503 -65.2195 0.216579 6.1238 -0.0115851 84.7984 4.40241 8.8568 0.354228 -29.1786 -13.3563 0.0 0.0 0.0 25.4903 26.7415 -19.8092 -35.3367 -0.19705 5.33451 29.3364 -3.97771 -3.87748 13.7153 -0.0 -0.0 -0.0 0.0 -0.0 4.53758 7.27569 0.44207 -22.8116 -0.25166 -3.46851 39.0944 19.0991 5.23375 -6.82977 0.0 0.0 0.0 0.0 0.0 
3429.80543299 718.982 -1530.05511464 -13.1863834583 65.7772361026 11.7785698519 3.82058 0.612376 -0.423456 3.82045 0.63808 -0.383631 3.81624 0.686867 -0.287281 3.81668 0.632876 -0.392156 -28.5948 15.1539 8.35032 -30.1899 26.0619 16.8695 -0.0 0.0 -0.0 1.41289 24.3437 4.70802 -32.7295 -3.33479 64.498 1.91666 -43.5102 0.764927 -65.7079 -5.99994 5.24313 -2.02294 -0.599506 -13.9215 -0.0 0.0 -0.0 14.8521 25.6081 -30.0617 -4.45019 0.295604 -65.6542 0.212635 6.01311 -0.0111681 85.3404 4.46733 8.88171 0.357389 -29.171 -13.3713 0.0 0.0 0.0 26.0381 23.237 -19.3161 -35.2178 -0.190884 5.31731 26.206 -3.49443 -3.52278 13.1026 -0.0 -0.0 -0.0 0.0 -0.0 3.56424 5.28167 0.171836 -20.4392 -0.290159 -3.10653 38.6232 18.0658 5.14965 -5.62231 0.0 0.0 0.0 0.0 0.0 
3414.24450559 719.311 -1518.70260953 -15.7380161266 71.7366792435 14.5494743314 3.86598 0.603904 -0.427355 3.86586 0.629874 -0.38806 3.86165 0.679156 -0.29339 3.86208 0.624297 -0.39697 -29.1096 15.5238 8.32485 -30.8753 26.8118 17.2732 -0.0 0.0 -0.0 1.18729 24.8337 4.44027 -33.8695 -1.78405 65.2893 1.84779 -42.465 0.71797 -65.7198 -6.00145 5.24335 -1.90643 -0.685956 -13.1597 -0.0 0.0 -0.0 14.7753 25.6404 -29.8752 -3.28142 0.510768 -65.825 0.241639 6.82603 -0.0144111 85.4152 4.4763 8.88509 0.450447 -27.5929 -13.3809 0.0 0.0 0.0 26.1587 21.6831 -18.9025 -35.732 -0.217802 5.39159 23.1402 -2.87685 -3.15732 12.4055 -0.0 -0.0 -0.0 0.0 -0.0 2.41357 3.44306 0.324412 -20.903 -0.283812 -3.1774 39.2679 14.592 5.08762 -4.24758 0.0 0.0 0.0 0.0 0.0 
3405.16985304 718.014 -1507.04386012 -21.2721946393 75.8084293334 20.3964924582 4.00503 0.629677 -0.524441 4.00494 0.661772 -0.48331 3.9994 0.723508 -0.38479 3.99979 0.653658 -0.494228 -29.3274 15.7117 7.8688 -31.2269 27.3345 17.0737 -0.0 0.0 -0.0 1.01205 25.5324 4.26122 -35.2725 -0.183027 66.7482 1.78266 -41.4432 0.674428 -65.8559 -6.0187 5.24585 -1.87954 -0.636974 -12.9522 -0.0 0.0 -0.0 14.7333 25.5893 -29.7819 -1.73591 0.934394 -66.1411 0.328159 9.23345 -0.0264995 85.3059 4.46318 8.88014 0.472661 -26.7198 -13.2226 0.0 0.0 0.0 26.1309 18.5584 -18.0102 -33.0666 -0.0855558 5.00412 19.3045 -2.35749 -2.68106 11.0518 -0.0 -0.0 -0.0 0.0 -0.0 1.48329 2.03004 0.331193 -19.0877 -0.305379 -2.89971 39.8671 13.9542 5.12107 -3.19512 0.0 0.0 0.0 0.0 0.0 
3381.60692692 718.182 -1489.16162674 -33.1406874764 81.1689915908 32.4797282204 3.86919 0.460947 -0.53209 3.86921 0.493871 -0.501681 3.86486 0.560895 -0.425428 3.86494 0.486668 -0.508671 -27.917 16.6592 8.76559 -29.8428 28.7313 18.0548 -0.0 0.0 -0.0 0.695684 23.522 3.67156 -37.517 2.27513 69.4222 1.44192 -35.5355 0.462077 -62.2522 -5.56411 5.16576 -1.17174 -3.44087 -9.3785 -0.0 0.0 -0.0 14.3096 25.5508 -28.7855 0.453906 1.55636 -66.6975 0.568933 15.7397 -0.0786417 85.4735 4.48331 8.88773 1.31972 -25.6632 -17.8303 0.0 0.0 0.0 28.8321 13.8818 -17.7122 -28.686 0.0921494 4.35552 14.7569 -4.21549 -2.10486 6.21533 -0.0 -0.0 -0.0 0.0 -0.0 -2.34672 0.15917 0.594086 -12.8026 -0.311951 -1.9359 39.0225 13.0328 5.01902 -0.800141 0.0 0.0 0.0 0.0 0.0 
3370.19143873 716.619 -1484.00994411 -48.9115847955 82.8456758716 48.3793939718 3.73776 0.286957 -0.493077 3.73784 0.31775 -0.473819 3.73517 0.38355 -0.422326 3.73505 0.312039 -0.477599 -29.3321 16.423 9.03873 -31.3337 28.2983 18.6315 -0.0 0.0 -0.0 0.416244 24.1723 3.35233 -38.6653 2.84653 69.9239 1.52492 -37.0649 0.51122 -61.6922 -5.49392 5.15074 -0.43087 -4.28111 -4.71932 -0.0 0.0 -0.0 14.1176 25.4021 -28.3514 1.55496 1.85869 -67.4614 0.739521 20.1196 -0.131195 85.2798 4.46006 8.87895 1.7988 -27.0636 -21.0634 0.0 0.0 0.0 30.1387 12.325 -17.581 -22.9709 0.248538 3.49275 13.1464 -3.61787 -1.88377 2.65603 -0.0 -0.0 -0.0 0.0 -0.0 -3.86754 -0.552984 0.527274 -10.047 -0.281506 -1.51422 37.3353 13.723 4.88401 -0.526248 0.0 0.0 0.0 0.0 0.0 
3370.12698379 716.619 -1482.46214886 -51.6250761025 83.123266031 51.1133384518 3.73776 0.286957 -0.493077 3.73784 0.31775 -0.473819 3.73517 0.38355 -0.422326 3.73505 0.312039 -0.477599 -29.3321 16.423 9.03873 -31.3337 28.2983 18.6315 -0.0 0.0 -0.0 0.416244 24.1723 3.35233 -38.6653 2.84653 69.9239 1.52492 -37.0649 0.51122 -61.6922 -5.49392 5.15074 -0.43087 -4.28111 -4.71932 -0.0 0.0 -0.0 14.1176 25.4021 -28.3514 1.55496 1.85869 -67.4614 0.739521 20.1196 -0.131195 85.2798 4.46006 8.87895 1.7988 -27.0636 -21.0634 0.0 0.0 0.0 30.1387 12.325 -17.581 -22.9709 0.248538 3.49275 13.1464 -3.61787 -1.88377 2.65603 -0.0 -0.0 -0.0 0.0 -0.0 -3.86754 -0.552984 0.527274 -10.047 -0.281506 -1.51422 37.3353 13.723 4.88401 -0.526248 0.0 0.0 0.0 0.0 0.0 
